<?xml version="1.0" encoding="UTF-8" standalone="no"?>
<!-- Created with Inkscape (http://www.inkscape.org/) -->

<svg
   version="1.1"
   id="svg449"
   width="932.13062"
   height="877.11682"
   viewBox="0 0 932.13062 877.11682"
   sodipodi:docname="skilltree.svg"
   xml:space="preserve"
   inkscape:version="1.1.2 (0a00cf5339, 2022-02-04)"
   inkscape:export-filename="../2cfe75b8/skilltree.png"
   inkscape:export-xdpi="96"
   inkscape:export-ydpi="96"
   xmlns:inkscape="http://www.inkscape.org/namespaces/inkscape"
   xmlns:sodipodi="http://sodipodi.sourceforge.net/DTD/sodipodi-0.dtd"
   xmlns="http://www.w3.org/2000/svg"
   xmlns:svg="http://www.w3.org/2000/svg"><defs
     id="defs453"><linearGradient
       id="linearGradient4253"
       inkscape:swatch="solid"><stop
         style="stop-color:#ff0000;stop-opacity:1;"
         offset="0"
         id="stop4251" /></linearGradient><linearGradient
       id="linearGradient4247"
       inkscape:swatch="solid"><stop
         style="stop-color:#ff0000;stop-opacity:1;"
         offset="0"
         id="stop4245" /></linearGradient><linearGradient
       id="linearGradient4241"
       inkscape:swatch="solid"><stop
         style="stop-color:#ff0000;stop-opacity:1;"
         offset="0"
         id="stop4239" /></linearGradient><linearGradient
       id="linearGradient4235"
       inkscape:swatch="solid"><stop
         style="stop-color:#ff0000;stop-opacity:1;"
         offset="0"
         id="stop4233" /></linearGradient><linearGradient
       id="linearGradient4229"
       inkscape:swatch="solid"><stop
         style="stop-color:#ff0000;stop-opacity:1;"
         offset="0"
         id="stop4227" /></linearGradient><linearGradient
       id="linearGradient4223"
       inkscape:swatch="solid"><stop
         style="stop-color:#ff0000;stop-opacity:1;"
         offset="0"
         id="stop4221" /></linearGradient><linearGradient
       id="linearGradient4217"
       inkscape:swatch="solid"><stop
         style="stop-color:#ff0000;stop-opacity:1;"
         offset="0"
         id="stop4215" /></linearGradient><linearGradient
       id="linearGradient4211"
       inkscape:swatch="solid"><stop
         style="stop-color:#ff0000;stop-opacity:1;"
         offset="0"
         id="stop4209" /></linearGradient><linearGradient
       id="linearGradient4205"
       inkscape:swatch="solid"><stop
         style="stop-color:#ff0000;stop-opacity:1;"
         offset="0"
         id="stop4203" /></linearGradient><linearGradient
       id="linearGradient4199"
       inkscape:swatch="solid"><stop
         style="stop-color:#ff0000;stop-opacity:1;"
         offset="0"
         id="stop4197" /></linearGradient></defs><sodipodi:namedview
     id="namedview451"
     pagecolor="#ffffff"
     bordercolor="#000000"
     borderopacity="0.25"
     inkscape:showpageshadow="2"
     inkscape:pageopacity="0.0"
     inkscape:pagecheckerboard="0"
     inkscape:deskcolor="#d1d1d1"
     showgrid="false"
     inkscape:zoom="0.7236796"
     inkscape:cx="14.509183"
     inkscape:cy="610.76753"
     inkscape:window-width="2560"
     inkscape:window-height="1371"
     inkscape:window-x="0"
     inkscape:window-y="32"
     inkscape:window-maximized="1"
     inkscape:current-layer="svg449"
     inkscape:pageshadow="2" /><path
     style="fill:#ff0000;fill-opacity:1"
     d="m 388.44943,875.74052 c -6.13577,-1.0049 -10.78751,-1.0723 -19.96209,-0.2894 -13.48233,1.1505 -17.00006,0.7452 -23.48213,-2.7055 -2.71471,-1.4451 -6.21881,-2.4168 -8.71604,-2.4168 -5.31718,0 -8.06352,-0.9346 -6.17533,-2.1016 0.73617,-0.455 -4.31466,-0.7789 -11.2905,-0.7241 -12.17295,0.096 -15.98047,-0.4968 -14.21104,-2.211 1.0233,-0.9913 21.70671,-5.3625 33.33713,-7.0454 l 8.5,-1.2298 -3.5,-1.268 -3.5,-1.2679 4.0066,-0.076 c 2.20363,-0.042 5.52966,0.3607 7.39118,0.8946 2.12334,0.609 3.98409,0.6203 4.9934,0.03 1.23565,-0.7222 1.28127,-0.9473 0.19668,-0.9707 -1.69552,-0.037 -10.42232,-5.02926 -9.82852,-5.62306 0.7596,-0.7596 7.19271,1.83333 10.34245,4.16866 3.06462,2.2721 3.23875,2.2849 14.53313,1.066 12.20441,-1.3171 15.47831,-2.7059 29.29036,-12.42482 5.85745,-4.12159 10.58377,-6.21714 14.02228,-6.21714 1.91662,0 2.98734,-0.93215 4.51873,-3.93392 1.10381,-2.16365 2.8176,-4.52615 3.80842,-5.25 2.6479,-1.93443 6.25037,-8.58715 5.58662,-10.31686 -0.31574,-0.82279 1.26773,-6.41003 3.51882,-12.4161 2.97723,-7.94348 4.3855,-13.60004 5.16638,-20.75162 0.59041,-5.40733 2.15287,-16.16345 3.47212,-23.9025 3.16061,-18.54096 4.48135,-35.65649 4.48135,-58.07422 0,-16.81035 -0.14725,-18.3556 -1.75,-18.36455 -3.64666,-0.0204 -12.50616,-5.11991 -17.11459,-9.85121 -2.63521,-2.70547 -6.89573,-8.29548 -9.46783,-12.42224 -6.09167,-9.77368 -7.44797,-10.2903 -26.66758,-10.15768 -16.29046,0.1124 -21.64227,1.35501 -36.72996,8.52814 -9.30983,4.42616 -10.27904,4.54754 -18.11613,2.26884 -4.59002,-1.33458 -8.23255,-1.52666 -19.35775,-1.02079 -7.53711,0.34271 -13.94567,0.23182 -14.24125,-0.24644 -0.29557,-0.47825 0.92115,-1.13151 2.70384,-1.45167 5.99995,-1.07758 25.18671,-2.51005 31.74125,-2.36978 6.07453,0.12999 7.46766,-0.31222 21.28317,-6.75584 10.04075,-4.68305 14.32933,-7.14891 13.36844,-7.68665 -0.7781,-0.43545 -7.43052,-1.73508 -14.78317,-2.88807 -26.85621,-4.21141 -48.71637,-11.38121 -60.89538,-19.97276 -2.42701,-1.71211 -3.09277,-1.70733 -16.83578,0.12066 -7.86986,1.04679 -14.6356,2.1052 -15.03496,2.35202 -1.06904,0.66071 -18.51313,3.31895 -26.60232,4.05383 -3.85,0.34976 -11.97022,1.5388 -18.04492,2.6423 -9.98232,1.81335 -11.56975,1.8706 -16.5,0.5951 l -5.45508,-1.41127 4.5,-0.71918 c 10.66851,-1.70503 21,-4.06787 21,-4.80277 0,-0.43712 -0.5066,-0.79477 -1.12577,-0.79477 -0.61918,0 -7.25668,-2.42333 -14.75,-5.38517 -7.49333,-2.96184 -17.89923,-6.5991 -23.12423,-8.0828 -10.80214,-3.06739 -19.66075,-7.46704 -22.29668,-11.07369 -2.50747,-3.43088 -0.74424,-3.08133 7.62388,1.51136 5.08822,2.79258 10.93064,4.84395 19.7029,6.91801 14.50613,3.42976 39.64585,10.53223 44.58661,12.59661 3.21073,1.34152 3.93344,1.22755 12.14855,-1.9159 4.80411,-1.83825 12.46165,-4.08478 17.01677,-4.99228 4.55511,-0.9075 9.50511,-2.12422 11,-2.70382 2.64966,-1.02734 2.50435,-1.16381 -5.78203,-5.43005 -14.52708,-7.47928 -21.87811,-9.25421 -57.67219,-13.92519 -32.55879,-4.24878 -55.34207,-9.54722 -69.32781,-16.12274 -7.84518,-3.68849 -12,-6.82837 -12,-9.06865 0,-2.11269 2.39432,-1.59234 12.45866,2.70762 10.35132,4.42257 20.95328,7.01618 38.54134,9.42858 10.45935,1.43461 38,4.35132 38,4.02441 0,-0.0748 -1.12784,-3.45198 -2.50631,-7.50484 -2.51392,-7.39125 -2.25789,-9.87243 0.89391,-8.66296 0.83712,0.32123 2.42039,2.34496 3.51837,4.49719 1.22591,2.40299 3.84828,5.08188 6.79518,6.94166 6.36195,4.01499 5.39006,3.74952 28.00266,7.64899 16.31714,2.81384 24.81281,6.99149 37.60475,18.49172 11.05752,9.94095 12.27755,10.3538 33.19144,11.23171 17.35026,0.72832 24.8254,1.89301 34.5,5.3754 2.475,0.89087 11.025,2.29431 19,3.11874 30.36515,3.13905 43.23219,7.40478 59.88752,19.85414 4.06313,3.03707 7.77563,5.52195 8.25,5.52195 1.73082,0 0.79416,-3.80076 -1.93988,-7.87166 -1.5413,-2.29494 -7.9538,-8.48236 -14.25,-13.74982 -20.88297,-17.47089 -26.06962,-23.4625 -34.34614,-39.67663 -8.18312,-16.03114 -9.60697,-17.88768 -16.2214,-21.15084 -4.89729,-2.41602 -7.71866,-3.02974 -16.8801,-3.67182 -11.12474,-0.77968 -28.10974,-3.70317 -36.66687,-6.31118 -4.1221,-1.25632 -5.23105,-1.23581 -9.5,0.1757 -6.93616,2.29341 -26.30545,2.05137 -44.96475,-0.5619 -31.62892,-4.42968 -47.9828,-4.00351 -74.36838,1.938 -17.30924,3.89769 -25.77376,4.04597 -33.33579,0.58396 -9.62722,-4.40749 -27.92607,-17.58468 -40.16421,-28.92266 -3.85,-3.56682 -8.42183,-7.21726 -10.15963,-8.11209 -1.7378,-0.89483 -11.1878,-3.48076 -21.000002,-5.74651 -20.98592,-4.84589 -22.10945,-5.22579 -16.87396,-5.70559 2.18152,-0.19992 8.25652,0.58743 13.5,1.74966 5.24347,1.16223 10.34679,2.28479 11.340692,2.49458 2.69753,0.56937 1.70395,-0.84556 -3.228592,-4.59776 -4.75636,-3.61818 -6.55286,-6.34871 -3.41207,-5.18605 1.00846,0.37331 4.75376,2.62361 8.322882,5.00068 13.83586,9.21477 10.54723,3.45662 -7.347322,-12.86463 -13.88063,-12.66023 -22.7528,-19.19343 -34.08077,-25.09608 -9.234,-4.81155 -18.65305,-13.4978 -21.54336,-19.86729 -3.9704,-8.74973 -1.84997,-10.73292 2.78,-2.60007 1.64384,2.8875 4.2743,6.40592 5.84546,7.81872 3.16807,2.84873 18.3398,11.9205 28.28877,16.91495 12.70247,6.37674 26.423962,16.62986 38.042872,28.42682 4.11124,4.17423 7.76832,7.58951 8.12686,7.58951 1.16418,0 5.0128,-10.05083 6.45617,-16.86056 0.774,-3.65169 1.41509,-11.04929 1.42464,-16.4391 0.0183,-10.32305 -0.72312,-12.83778 -5.72494,-19.41808 -1.34523,-1.76976 -2.28027,-3.71455 -2.07787,-4.32176 0.58872,-1.76614 5.54424,2.71252 8.4077,7.59864 5.67138,9.67749 6.67158,20.91835 3.77634,42.44086 -0.98018,7.2864 -1.38317,14.08897 -0.96619,16.30966 0.954,5.08073 5.90411,10.36343 14.26661,15.22517 3.75119,2.18084 9.25904,5.94209 12.23967,8.35833 2.98062,2.41624 6.58407,5.00097 8.00767,5.74384 5.4462,2.84197 16.9202,1.26958 46.08837,-6.31592 21.27012,-5.53153 30.90132,-6.18696 37.78079,-2.57108 6.11937,3.21636 13.35271,2.92607 30.20646,-1.21227 7.75523,-1.90425 17.40581,-3.7618 21.44573,-4.12789 l 7.3453,-0.66561 -3.26023,-2.86253 c -1.79313,-1.57438 -4.95027,-6.07866 -7.01586,-10.00949 -2.0656,-3.93084 -5.20428,-8.77266 -6.97484,-10.75959 -1.77057,-1.98694 -5.72437,-7.0232 -8.78623,-11.19169 -8.49329,-11.56295 -14.11706,-16.02133 -30.28958,-24.01279 l -14.30797,-7.07012 -13.82179,8.36019 c -15.26241,9.23157 -22.94502,12.19069 -37.2477,14.34675 -25.47945,3.84091 -23.83814,0.0102 2.76552,-6.45458 13.86579,-3.36943 15.40173,-4.13061 27.56907,-13.66266 6.20765,-4.86314 8.28708,-7.01848 7.30275,-7.56934 -3.97153,-2.22258 -25.97321,-7.37392 -48.63177,-11.38636 -42.99023,-7.61281 -56.66589,-11.7197 -69.48395,-20.86648 -11.976712,-8.5464 -15.340742,-13.39987 -31.263522,-45.10554 -8.01018,-15.95 -16.51082,-31.5975 -18.89029,-34.77222 -5.75696,-7.68098 -11.40457,-18.17167 -15.91391,-29.56081 -5.65185,-14.27475 -2.22873,-13.31107 4.97527,1.40064 4.49717,9.18394 12.19693,20.08909 18.95799,26.85015 3.41974,3.41975 6.67336,8.07335 8.90419,12.73554 3.09562,6.46952 10.26127,19.64817 20.71438,38.0967 1.79191,3.1625 3.57954,5.75 3.972522,5.75 1.68072,0 1.44179,-6.12271 -1.212352,-31.06672 -2.66491,-25.0452 -2.87729,-31.6213 -0.90214,-27.93328 0.65738,1.22746 4.277112,26.04613 6.696552,45.91486 l 0.5376,4.41486 2.49813,-5.91486 c 1.37397,-3.25317 3.38153,-8.72736 4.46125,-12.16486 2.26502,-7.21116 4.49087,-8.54272 3.45537,-2.06709 -0.36788,2.3006 -2.49117,8.4881 -4.71842,13.75 -2.66641,6.29944 -4.23713,11.71431 -4.59878,15.85377 -0.64182,7.34622 0.0612,8.40835 10.50149,15.86531 11.28533,8.06054 13.80642,8.81249 44.93141,13.40154 26.22888,3.86717 44.67026,7.69946 62.29227,12.94489 l 13.83947,4.11952 6.33291,-4.66576 c 7.6394,-5.62832 13.20031,-8.49349 21.83291,-11.24907 14.68452,-4.6874 26.10816,-5.72865 36.78566,-3.35298 4.55711,1.01393 8.53137,1.44592 8.83169,0.95999 0.62678,-1.01414 -0.20591,-7.41376 -1.74678,-13.42486 -1.49493,-5.83192 -6.64117,-9.37948 -30.12057,-20.76357 -17.91745,-8.68735 -19.75,-9.80996 -19.75,-12.09878 0,-3.22313 0.76888,-3.17317 8.09714,0.52613 l 6.04011,3.04904 -0.68217,-4.54904 c -0.47194,-3.14713 -0.32933,-4.54904 0.46276,-4.54904 1.29133,0 1.66175,0.90786 2.54909,6.24751 0.70358,4.23385 2.50974,5.4767 13.47456,9.27206 3.60718,1.24859 7.39336,2.60879 8.41373,3.02266 1.35302,0.5488 0.0672,-2.62704 -4.75,-11.73219 -4.11629,-7.7803 -6.60522,-13.67643 -6.60522,-15.64737 0,-1.73947 0.3375,-3.147 0.75,-3.12785 1.25034,0.0581 15.23901,18.56789 23.8632,31.57581 9.51731,14.35502 13.31422,23.13563 14.11027,32.63094 0.45169,5.3877 0.98753,7.06858 2.51377,7.88539 7.00463,3.74877 12.97822,12.10984 16.05057,22.46555 2.63651,8.88667 5.73364,13.59262 14.05187,21.35116 25.84398,24.10511 29.17469,28.59873 36.58469,49.35816 l 4.70311,13.17599 14.93626,5.01296 c 8.21494,2.75712 17.55547,6.49636 20.75673,8.30941 l 5.82047,3.29645 -2.75593,-4.79832 c -7.25411,-12.63005 -17.9855,-26.3461 -33.58679,-42.92805 -10.52568,-11.18731 -16.10342,-19.9312 -21.6059,-33.87027 -1.08557,-2.75 -4.73702,-10.96663 -8.11432,-18.25918 -6.03792,-13.03757 -6.16632,-13.49719 -7.68225,-27.5 -1.62456,-15.00619 -1.32744,-24.18096 1.1671,-36.03961 2.06376,-9.81075 2.09629,-9.70121 -2.88135,-9.70121 -6.59663,0 -13.81503,-2.56647 -18.50193,-6.57829 -5.22952,-4.47627 -12.33363,-18.56217 -14.83861,-29.42171 -0.95151,-4.125 -1.81965,-7.63966 -1.92919,-7.81036 -0.10954,-0.1707 -8.26499,0.6168 -18.12321,1.75 -21.77079,2.50254 -34.84738,2.61191 -45.08072,0.37703 -5.36333,-1.1713 -11.81417,-1.64117 -21.20784,-1.54472 -15.41516,0.15828 -22.17064,-0.79452 -33.53536,-4.72985 -15.65288,-5.42021 -17.43388,-6.85741 -28.47538,-22.97842 -3.46146,-5.05387 -8.33357,-10.84819 -10.8269,-12.87627 -2.49334,-2.02807 -6.58737,-5.74962 -9.09785,-8.27011 -7.05671,-7.08483 -10.88822,-9.54826 -22.26357,-14.3141 -12.21943,-5.11949 -17.16701,-7.57047 -16.54249,-8.19498 0.74267,-0.74267 20.62535,6.51015 28.16536,10.27419 12.09519,6.03802 32.58528,22.42021 35.34907,28.26219 3.84158,8.12017 16.36634,16.77126 29.79666,20.58112 4.30521,1.22128 13.05581,1.94932 31.93046,2.65657 37.10249,1.39027 36.86141,1.39839 47.5,-1.59959 6.86578,-1.93479 11.99558,-2.70259 18.5,-2.769 l 9,-0.0919 -5.4934,-5.95442 c -7.65671,-8.29926 -13.23887,-12.12848 -24.53295,-16.82894 -13.10852,-5.45562 -26.47421,-12.2215 -34.97365,-17.70409 -16.71503,-10.78209 -38.28706,-36.84546 -37.29538,-45.06036 l 0.3228,-2.67401 1.7223,3.17328 c 3.3479,6.16841 14.10345,18.52587 20.91299,24.02772 3.79338,3.06491 7.13004,5.33959 7.41479,5.05484 0.6468,-0.64681 -4.05015,-19.34651 -6.43768,-25.62998 -3.642,-9.58498 -28.698,-51.23743 -36.24228,-60.24824 -2.22366,-2.65591 -6.31789,-6.30239 -9.09829,-8.10328 -4.75392,-3.07915 -5.59906,-3.27664 -14.17726,-3.3129 -5.18719,-0.0219 -10.8474,-0.6465 -13.12199,-1.44795 l -4,-1.40941 4,-0.74441 c 2.2,-0.40942 6.5125,-0.77034 9.58333,-0.80204 3.07084,-0.0317 5.8837,-0.358 6.25082,-0.72511 0.36712,-0.36712 -2.59538,-2.43562 -6.58333,-4.59668 -11.56555,-6.26732 -25.14266,-16.67734 -23.67081,-18.14918 0.65605,-0.65605 26.31852,13.89202 37.17525,21.07468 5.36539,3.54966 12.53344,9.0155 15.929,12.1463 8.27769,7.63225 23.71693,31.26104 36.38983,55.69236 5.75267,11.09024 7.44813,15.46943 11.80844,30.5 2.45879,8.47575 7.84058,14.81359 16.39163,19.30348 3.98407,2.09191 7.61405,3.57463 8.06662,3.29492 0.45257,-0.2797 1.38962,-3.67994 2.08232,-7.55608 1.49861,-8.38568 3.29827,-8.45366 2.42426,-0.0916 -1.12822,10.79423 -0.28738,11.64149 19.84383,19.99531 9.18178,3.81015 20.11328,11.268 25.2582,17.23203 5.69089,6.59694 8.3643,12.75492 10.62648,24.47728 2.41418,12.50999 4.62095,17.37753 9.14304,20.16709 3.626,2.23678 18.42063,6.87132 19.25893,6.03302 1.4419,-1.4419 2.68523,-13.35945 2.22797,-21.35549 -0.70027,-12.2453 -2.71091,-17.32497 -16.61208,-41.96855 -6.52499,-11.5673 -13.05091,-23.39976 -14.50206,-26.29436 -4.49524,-8.96665 -8.7598,-23.20888 -9.55201,-31.90053 -0.79716,-8.746 0.27958,-26.09469 2.02091,-32.56151 0.92704,-3.44274 0.72201,-4.52253 -1.82747,-9.62449 -5.25887,-10.52393 -10.86214,-17.02119 -18.99606,-22.02684 -7.6995,-4.73832 -15.52436,-11.0546 -13.73704,-11.08866 0.55,-0.0105 4.50385,1.69449 8.78633,3.78882 5.43521,2.65806 7.60366,3.33504 7.18138,2.24199 -2.28155,-5.90555 -5.14234,-27.23683 -3.39717,-25.33076 0.38518,0.42069 1.69492,5.48989 2.91055,11.26489 1.21562,5.775 2.78337,11.85 3.48388,13.5 0.70052,1.65 5.61038,7.5 10.91082,13 7.65941,7.9478 9.83052,9.69708 10.57941,8.52393 0.51825,-0.81183 2.38877,-6.66183 4.15672,-13 4.43234,-15.89008 4.46513,-24.38181 0.12809,-33.17859 -4.17586,-8.46981 -7.58405,-11.5427 -28.74001,-25.91249 -33.99262,-23.08886 -56.02436,-40.279091 -70.35353,-54.893241 -9.87018,-10.06649 -17.14647,-18.60859 -17.14647,-20.12935 0,-3.11199 5.27064,1.14912 20.98916,16.96895 16.53428,16.64084 29.25439,27.211371 30.83791,25.62657 1.48125,-1.48245 0.59323,-28.92057 -1.14586,-35.40487 -2.06675,-7.706 -1.44946,-9.09184 1.29061,-2.89746 2.39353,5.41098 3.97572,15.55469 4.02368,25.79661 0.0391,8.3446 1.08611,11.46348 2.81266,8.37831 1.65754,-2.96185 2.13172,-1.22326 0.75533,2.7694 -1.5068,4.370941 -0.68715,6.230921 3.73621,8.478341 1.76017,0.8943 9.5003,6.02755 17.2003,11.40722 7.7,5.37967 17.6,11.69116 22,14.02553 9.36663,4.96935 13.0812,8.19572 19.13328,16.61857 6.58287,9.16158 7.74718,13.46435 7.08836,26.1953 -0.43448,8.39581 -1.72959,15.24688 -6.16778,32.62733 -3.63872,14.24966 -5.83742,25.12254 -6.24121,30.86358 l -0.62341,8.86358 3.40538,-0.6844 c 9.59857,-1.9291 15.35997,-3.75518 17.73021,-5.61961 3.85227,-3.0302 8.95914,-10.45283 12.67538,-18.42315 3.24183,-6.95286 5.44726,-9.61286 10.781,-13.00311 4.5336,-2.88167 4.18965,-1.02343 -0.76833,4.151 -2.54817,2.65942 -5.52675,6.86409 -6.61907,9.34371 -1.09232,2.47962 -4.51904,8.9504 -7.61492,14.37952 -6.18564,10.84749 -7.95423,12.37135 -18.27889,15.74959 -3.575,1.16975 -6.9026,2.49622 -7.39468,2.94773 -1.07401,0.98546 4.29104,16.79473 8.61504,25.38605 7.81075,15.51914 17.42058,31.50036 21.6749,36.04551 5.95078,6.3576 8.38395,10.39128 11.15945,18.5 2.86546,8.37156 3.09696,22.08532 0.57113,33.83374 -0.98543,4.58356 -1.61488,8.51056 -1.39877,8.72666 1.32996,1.32997 16.75484,2.44628 25.86065,1.87157 14.00462,-0.8839 19.90414,0.71778 26.33655,7.15019 l 4.5681,4.56811 1.08499,-2.82514 c 3.6394,-9.47637 6.00237,-18.52707 6.45488,-24.72368 0.28522,-3.9058 0.72908,-9.72558 0.98635,-12.93284 l 0.46776,-5.8314 -5.67448,-5.9491 c -3.12097,-3.272 -7.2804,-6.92471 -9.24318,-8.11711 -6.13001,-3.72404 -10.71844,-7.75538 -13.95204,-12.2581 -5.30454,-7.38644 -3.89356,-8.43261 3.13335,-2.32323 3.4375,2.98866 9.64764,7.7627 13.80032,10.60898 4.15267,2.84629 8.84936,6.53098 10.43709,8.18821 1.58772,1.65723 3.21589,3.01314 3.61815,3.01314 0.82698,0 4.00935,-9.36848 6.38951,-18.80985 1.07558,-4.2665 1.38169,-8.15727 0.94527,-12.01471 -0.36084,-3.18941 0.0452,-12.31233 0.92093,-20.69015 0.8615,-8.24191 1.74383,-18.19568 1.96074,-22.11949 l 0.39438,-7.1342 -3.6082,-1.08293 c -6.05718,-1.81794 -19.16845,-11.11551 -27.6428,-19.60228 -9.78829,-9.80263 -15.88937,-18.91018 -18.45313,-27.54639 -2.03685,-6.86128 -4.01226,-23.98464 -4.01226,-34.77933 0,-11.67738 -5.47554,-26.95271 -14.03578,-39.15617 -5.5038,-7.8462 -4.6145,-10.13017 1.10595,-2.84037 9.48895,12.09217 15.55184,24.64695 17.01823,35.24064 0.45947,3.31938 1.29055,10.33649 1.84684,15.59358 1.28657,12.15838 4.6367,23.54179 6.4785,22.01324 1.93302,-1.60426 7.28552,-13.7593 9.04118,-20.53169 1.9324,-7.45416 1.9278,-9.82506 -0.0429,-22.12703 -0.99813,-6.2308 -1.69903,-18.08463 -1.88694,-31.91287 -0.27428,-20.18391 -0.49742,-22.57684 -2.70306,-28.98782 -1.92274,-5.588721 -3.09665,-7.432471 -5.86305,-9.208571 -6.29536,-4.04179 -7.70401,-5.48515 -3.26127,-3.34163 l 4.19768,2.02529 -3.53611,-7.44605 c -2.08143,-4.3829 -3.2155,-7.96482 -2.75674,-8.7071 0.53956,-0.87303 1.15722,-0.34922 2.00742,1.70242 1.05036,2.53466 1.33064,2.70232 1.93705,1.15872 0.38995,-0.99261 0.49399,-5.15511 0.23119,-9.25 -0.2628,-4.09489 -0.14224,-7.44526 0.26792,-7.44526 1.06892,0 2.27383,15.26685 1.48747,18.8471 -0.72787,3.31399 0.49463,6.21394 6.31495,14.97998 l 3.54436,5.338191 1.20613,-5.832631 c 2.78235,-13.45496 8.38368,-23.19187 17.28456,-30.04611 2.70444,-2.08259 8.13858,-6.26042 12.07586,-9.28406 9.2929,-7.13648 13.62227,-12.81486 16.17293,-21.21234 2.54294,-8.3721 4.44718,-10.15068 3.40736,-3.18252 -1.66189,11.13688 -5.01112,15.88938 -22.05627,31.2975 -11.87857,10.73774 -13.76346,12.89465 -16.90112,19.34023 -1.94233,3.99006 -4.50585,11.07966 -5.69672,15.75466 -2.09874,8.239081 -2.13109,9.240171 -1.05386,32.612301 0.79254,17.19529 1.74326,27.21325 3.31414,34.92208 2.78278,13.65596 2.02812,19.89039 -4.5132,37.2845 -2.54798,6.77539 -4.6327,13.5612 -4.6327,15.07959 0,3.44612 8.82641,13.50229 15.72512,17.91606 2.62618,1.68022 9.27488,4.6828 14.77488,6.67241 l 10,3.61745 1.43432,-2.1461 c 0.78888,-1.18036 4.66052,-4.32312 8.60366,-6.98392 7.85797,-5.3025 8.48055,-5.97173 19.61598,-21.08573 4.20967,-5.71375 11.73991,-14.88864 16.73385,-20.38864 4.99394,-5.5 9.08716,-10.63546 9.09604,-11.41214 0.0347,-3.03132 -5.17426,-10.00694 -11.67326,-15.63246 -12.49611,-10.81629 -27.31059,-24.69134 -27.31059,-25.57844 0,-1.85705 1.84316,-0.58761 11.7283,8.07764 5.61819,4.92487 12.59017,10.55579 15.49329,12.51315 l 5.27841,3.55885 0.75613,-5.11289 c 1.22083,-8.25515 2.55811,-9.04941 1.99543,-1.18515 l -0.5039,7.04266 3.97249,4.36454 c 2.18487,2.4005 4.40335,5.16332 4.92995,6.1396 0.83457,1.54725 2.36231,0.50781 11.90368,-8.09897 9.71852,-8.76659 11.47748,-10.88308 15.68291,-18.87064 6.36561,-12.09056 9.40501,-20.47028 10.62951,-29.3063 1.2668,-9.14152 5.0626,-16.8089 13.574,-27.419171 7.0356,-8.77057 7.4674,-10.12697 7.6657,-24.07998 l 0.1279,-9 0.9488,5.5 c 0.5218,3.025 0.7697,7.8625 0.5508,10.75 -0.2189,2.8875 -0.1147,5.25 0.2314,5.25 0.3461,0 2.4081,-1.83535 4.5823,-4.07855 5.9621,-6.15162 20.4397,-18.26803 21.0721,-17.63554 0.3058,0.30579 -7.0644,8.44222 -16.3782,18.08096 -19.6976,20.38475 -24.1272,27.418471 -26.8486,42.633131 -3.7529,20.98099 -8.3603,34.80408 -14.77745,44.33589 -2.32955,3.4602 -7.26983,8.65753 -11.38624,11.97868 -3.9992,3.22658 -11.84463,11.11327 -17.43427,17.52597 -5.58965,6.41271 -12.28231,13.90946 -14.87259,16.65946 -2.59028,2.75 -5.92659,7.5287 -7.41401,10.61933 -1.48742,3.09064 -6.51895,10.71227 -11.18118,16.93697 -14.78798,19.74393 -15.9917,23.30439 -15.70164,46.4437 0.11721,9.35 0.53734,20.69081 0.93363,25.2018 0.86283,9.82167 -0.0656,15.20189 -6.15983,35.69694 l -4.43019,14.89873 5.81135,6.10127 c 3.19623,3.35569 8.45013,9.38994 11.67532,13.40944 l 5.86399,7.30818 5.41363,-5.30818 c 7.2251,-7.08437 13.98389,-16.0826 17.13178,-22.80818 2.27517,-4.86098 2.55658,-6.66186 2.42208,-15.5 -0.0837,-5.5 -1.08246,-15.93245 -2.21948,-23.18322 -2.59533,-16.55046 -2.60827,-20.97781 -0.0726,-24.81678 l 1.98154,-3 -0.0654,10 c -0.0501,7.6568 0.70073,13.63196 3.20428,25.5 3.78879,17.9607 4.67821,30.21908 2.46692,34 -0.80418,1.375 -2.13125,3.93879 -2.94906,5.69731 -2.48235,5.33779 -9.29942,14.82838 -15.32997,21.3421 l -5.70782,6.16513 2.89101,8.34017 c 1.59006,4.5871 3.14364,8.18076 3.4524,7.98592 0.62805,-0.39633 4.62689,-8.191 8.48057,-16.53063 2.55961,-5.53916 5.02287,-8.92578 20.58081,-28.29561 9.56942,-11.91406 15.918,-22.53864 23.14387,-38.73218 l 4.93645,-11.06289 -2.57708,-9.68256 c -1.41741,-5.3254 -4.1783,-13.5175 -6.13532,-18.20465 -9.03143,-21.63078 -11.8173,-39.09037 -11.142,-69.82904 0.42166,-19.19198 0.93663,-23.19307 2.98517,-23.19307 0.6434,0 0.72852,2.92649 0.23998,8.25 -1.73254,18.87887 -0.23211,35.41792 4.67189,51.4976 1.13265,3.71382 5.36196,13.74902 9.39847,22.30044 4.03649,8.55143 7.64429,16.76393 8.01729,18.25 0.3729,1.48608 0.9668,2.6999 1.3197,2.69739 0.3529,-0.003 2.8126,-4.27138 5.466,-9.48635 3.661,-7.19524 6.1647,-10.67636 10.3823,-14.43545 4.6494,-4.14391 5.4445,-5.33127 4.8643,-7.26365 -0.3815,-1.27049 -1.0467,-12.20998 -1.4781,-24.30998 -1.0258,-28.76697 -1.6498,-30.41882 -20.3555,-53.88436 -8.47985,-10.63759 -12.1735,-17.3156 -11.11011,-20.08675 0.46552,-1.21314 1.67039,0.21075 4.47301,5.28611 2.1097,3.82057 7.299,10.71266 11.5316,15.31575 15.1991,16.5292 17.8693,20.6469 20.3286,31.34919 l 1.6039,6.97994 2.7334,-7.47994 c 3.1822,-8.70807 8.259,-17.97994 9.8449,-17.97994 0.7969,0 0.7936,0.3718 -0.012,1.34259 -2.4299,2.9278 -7.3911,16.71249 -9.5943,26.65741 -2.0835,9.405 -2.2424,11.78523 -1.5238,22.82409 0.4412,6.77824 1.0379,12.55969 1.3259,12.84766 0.2879,0.28797 2.9849,-0.39733 5.9932,-1.52288 3.0083,-1.12555 11.9268,-3.87843 19.819,-6.11751 7.8921,-2.23909 17.3736,-5.2217 21.0699,-6.62803 6.1279,-2.33147 6.9877,-3.02392 9.75,-7.85188 3.6569,-6.39153 3.7119,-8.58531 0.4906,-19.55145 -2.9733,-10.1215 -4.2208,-19 -2.6697,-19 0.5867,0 1.5956,2.5875 2.242,5.75 0.6463,3.1625 2.5727,9.35 4.2808,13.75 1.7081,4.4 3.3486,10.23847 3.6457,12.97438 l 0.54,4.97438 7.3883,-6.97438 c 7.8831,-7.44155 21.8293,-24.32702 34.2548,-41.47438 l 7.6087,-10.5 1.1869,-13.5 c 0.6528,-7.425 1.8324,-18 2.6214,-23.5 0.789,-5.5 1.6557,-12.63306 1.9259,-15.85125 0.2703,-3.21819 0.9826,-7.71819 1.5828,-10 1.3374,-5.08414 7.8927,-19.02057 8.6096,-18.30374 0.2856,0.28564 -0.8814,4.15152 -2.5934,8.59085 -1.712,4.43933 -3.5791,11.33236 -4.1491,15.31783 -0.9794,6.84743 -3.8719,51.89005 -3.3752,52.5595 0.1278,0.17225 3.8789,-1.52027 8.3358,-3.76116 4.4569,-2.24089 8.1035,-3.88467 8.1035,-3.65283 0,0.23183 -3.0375,2.31823 -6.75,4.63643 -8.1733,5.10366 -11.2444,7.79907 -11.2671,9.88868 -0.025,2.3236 -16.9944,25.66538 -27.7932,38.23071 -18.8416,21.92374 -31.7749,30.67264 -63.8007,43.15856 -11.1186,4.33484 -23.5846,9.84878 -25.1022,11.10322 -0.6869,0.56782 3.1162,11.74983 7.5698,22.25689 9.1086,21.48928 11.6397,47.41174 6.2767,64.28339 -1.1288,3.55139 -1.9152,6.59433 -1.7475,6.76209 1.0682,1.06813 24.4333,-6.07937 29.9395,-9.15862 6.9598,-3.8921 7.6386,-5.02637 7.661,-12.79982 0.021,-7.18109 -2.9194,-13.5208 -12.7606,-27.51498 -9.337,-13.27721 -14.6158,-22.5754 -13.9502,-24.57223 0.2142,-0.64251 0.9366,-0.14567 1.6055,1.10409 1.9781,3.69623 34.0591,43.01456 35.2089,43.15192 0.3244,0.0388 1.1396,-3.00578 1.8115,-6.76563 1.4752,-8.25458 4.6714,-15.40984 10.5859,-23.69831 4.7748,-6.69134 10.898,-11.20125 19.0127,-14.00352 5.7458,-1.98422 24.3732,-3.1439 30.175,-1.87861 3.1015,0.67639 1.4605,0.96077 -8.675,1.50338 -16.8684,0.90306 -24.9205,3.43372 -30.7621,9.66807 -6.5981,7.04182 -10.0433,15.0736 -12.1827,28.40131 -1.0433,6.49916 -2.7968,13.37708 -4.0235,15.78164 l -2.1743,4.26203 4.3213,-0.70293 c 12.2723,-1.99629 29.4761,-10.94046 38.3984,-19.96318 6.5891,-6.66333 11.1063,-13.42068 22.3272,-33.40004 10.1243,-18.02695 14.1687,-24.28065 30.3851,-46.98427 18.9677,-26.55549 22.5515,-30.07572 42.7106,-41.95291 5.225,-3.07842 13.1,-8.42952 17.5,-11.89133 7.5063,-5.90574 10.5,-7.45971 10.5,-5.45029 0,2.21494 -11.6853,11.47737 -22.5878,17.90437 -20.9768,12.36581 -26.8391,18.49916 -43.4045,45.41129 -4.5126,7.33117 -10.2175,16.40979 -12.6776,20.17472 -2.46,3.76492 -4.2575,7.0606 -3.9944,7.32373 0.2632,0.26313 1.8168,-0.21366 3.4525,-1.05954 3.3996,-1.75799 28.8938,-10.60951 30.5576,-10.60951 2.2229,0 -3.7342,3.30819 -15.6348,8.68265 -6.716,3.03304 -12.575,5.85673 -13.0199,6.27485 -0.4448,0.41813 1.5802,0.60255 4.5,0.40984 7.0022,-0.46216 2.4997,1.12398 -5.9864,2.1089 -6.9947,0.81183 -11.4596,3.25195 -14.2076,7.76462 -1.0916,1.79253 -4.0467,8.40943 -6.5669,14.70423 -2.5203,6.29481 -6.1699,13.83692 -8.1103,16.76025 -8.5351,12.85865 -35.3521,31.92499 -53.9212,38.33689 -3.2443,1.12023 -13.0447,3.62481 -21.7788,5.56572 -17.5641,3.90314 -22.9412,5.68286 -45.6199,15.09944 -18.4105,7.64433 -27.5775,12.82503 -39.0177,22.05058 -4.66528,3.76212 -10.60042,8.28892 -13.18924,10.05954 -5.18626,3.54715 -18.52508,10.18249 -20.46954,10.18249 -0.67809,0 -1.47128,1.4625 -1.76265,3.25 -0.29136,1.7875 -1.44581,8.56696 -2.56543,15.06547 l -2.03569,11.81547 3.75709,7.14976 c 6.01641,11.44924 11.91416,16.5247 28.92129,24.88895 15.63127,7.68756 18.88087,10.273 25.34287,20.16282 l 3.847,5.88763 3.086,-4.26009 c 1.6973,-2.34305 3.086,-5.11492 3.086,-6.15971 0,-2.87613 2.5938,-7.31949 8.92,-15.28028 3.1505,-3.96451 7.5589,-10.54086 9.7965,-14.61411 9.4682,-17.23554 17.6387,-25.38587 30.9738,-30.89741 4.2953,-1.77531 13.2097,-5.82314 19.8097,-8.99517 6.6,-3.17203 13.2375,-6.26303 14.75,-6.86889 1.5125,-0.60586 2.75,-1.80414 2.75,-2.66284 0,-2.09271 3.4763,-8.8021 5.3786,-10.38086 0.8386,-0.696 2.7093,-4.92444 4.157,-9.39653 3.3071,-10.21595 5.5929,-13.43021 11.3722,-15.99136 5.8155,-2.57715 24.6418,-3.86153 23.8981,-1.63039 -0.6231,1.86901 -4.1189,2.70011 -11.853,2.81786 -6.2047,0.0945 -6.735,0.29573 -10.1439,3.84968 -6.9884,7.28581 -9.3684,15.47816 -6.7112,23.10078 0.6038,1.73207 1.6401,3.14922 2.3029,3.14922 0.6628,0 4.7813,-1.73653 9.1522,-3.85896 8.9957,-4.36812 20.2025,-12.49661 31.9471,-23.17162 25.8096,-23.45922 35.5497,-30.54436 48.9744,-35.6249 17.7735,-6.72632 21.9108,-13.52955 27.005,-44.40565 1.4893,-9.02639 3.3395,-17.76774 4.1117,-19.42524 l 1.404,-3.01363 -0.4651,3.5 c -0.2559,1.925 -1.1707,10.6964 -2.0329,19.492 -1.7588,17.94124 -3.5121,25.95926 -7.0868,32.41007 -1.3417,2.42114 -2.1939,4.64764 -1.8938,4.94778 0.3002,0.30014 3.4951,0.0405 7.0998,-0.57695 4.6291,-0.79293 9.0991,-2.57236 15.2189,-6.05844 10.0336,-5.71548 20.4264,-10.19349 38.6648,-16.65972 7.15,-2.53496 17.05,-6.16968 22,-8.07717 17.8135,-6.86442 15.5878,-4.43129 -3,3.27959 -26.3331,10.92392 -47.8913,20.63629 -55,24.77857 -9.9781,5.81428 -15.6896,8.3143 -23.0159,10.07457 -3.8412,0.92292 -9.6348,2.96316 -12.8746,4.53387 -3.2397,1.57071 -6.6147,2.85619 -7.5,2.85662 -2.1496,10e-4 -12.9739,5.34043 -16.1095,7.94646 -2.4795,2.06075 -2.4836,2.09086 -0.5,3.67718 3.6044,2.88246 12.0323,6.17744 20.3999,7.97555 8.412,1.80766 13.8314,4.30282 9.4876,4.36822 -1.1618,0.0175 -7.6362,-1.0932 -14.3875,-2.4682 -6.7513,-1.375 -13.243,-2.5 -14.4261,-2.5 -1.183,0 -3.8836,-0.88331 -6.0011,-1.96291 l -3.8502,-1.96291 -4.187,3.71291 c -2.3029,2.0421 -7.078,6.82723 -10.6113,10.63361 -11.0033,11.85352 -19.6201,17.37705 -52.3053,33.52848 -35.705,17.64368 -50.6338,27.03544 -61.7385,38.83976 -6.2109,6.60218 -14.8805,19.78855 -14.8805,22.63297 0,0.3462 1.2931,-0.0392 2.8736,-0.85653 1.5804,-0.81728 6.0742,-2.15333 9.9861,-2.96899 3.9119,-0.81566 9.9313,-3.04373 13.3765,-4.95126 8.326,-4.61007 15.8538,-6.79962 41.736,-12.13939 33.2223,-6.85413 46.5289,-11.26607 58.2719,-19.32072 2.3408,-1.60552 7.0184,-4.31021 10.3949,-6.01042 7.1337,-3.59219 32.0273,-10.61796 41.0879,-11.59631 11.678,-1.26098 15.594,-2.99711 20.0386,-8.8839 2.1999,-2.91374 5.233,-7.74947 6.7403,-10.74605 4.1246,-8.20017 15.405,-24.94834 16.8034,-24.94834 0.9087,0 -1.5132,5.22041 -9.7169,20.94475 -4.1449,7.94461 -7.35,14.63086 -7.1226,14.85832 0.2275,0.22747 6.0538,-2.81255 12.9473,-6.7556 15.4397,-8.83139 26.1981,-12.8808 36.416,-13.70679 9.1528,-0.7399 8.906,0.33471 -0.5266,2.29285 -8.4556,1.75531 -19.2663,5.80619 -23.1856,8.68787 -1.6297,1.19823 -5.586,4.32281 -8.7919,6.94351 -11.9311,9.75325 -35.3407,19.47303 -52.3289,21.72726 -13.7889,1.82969 -28.611,7.61619 -41,16.00625 -12.817,8.67994 -22.3265,12.10684 -50,18.01827 -13.1057,2.79956 -21.3931,5.11822 -25.2732,7.07098 -3.1753,1.59803 -11.2753,4.51175 -18,6.47494 -17.7627,5.18555 -26.7208,10.7851 -34.7596,21.7275 -2.3396,3.18456 -5.3662,6.66516 -6.7258,7.73468 -1.3597,1.06951 -4.7827,5.29181 -7.6068,9.38288 -2.824,4.09108 -9.4336,12.14898 -14.6879,17.90645 -9.4278,10.33062 -10.9502,12.67436 -16.8298,25.90921 -5.9254,13.33787 -16.51302,21.08695 -35.74029,26.15828 -5.01786,1.3235 -10.35099,3.21072 -11.85139,4.19382 -2.40266,1.57429 -2.64854,2.21307 -2.06168,5.35602 0.36648,1.9627 0.92341,5.50567 1.23762,7.87327 0.45833,3.4536 0.89035,4.1748 2.18506,3.64763 0.88758,-0.36139 7.90467,-1.95914 15.59353,-3.55054 7.68886,-1.59141 16.23886,-3.55425 18.99995,-4.36186 7.4463,-2.17799 19.807,-8.43903 30.3797,-15.38823 5.1477,-3.38345 9.9852,-6.15172 10.75,-6.15172 2.6329,0 1.3778,2.88712 -3.8717,8.90628 -6.6198,7.59046 -10.2084,10.1866 -25.7377,18.62003 -6.875,3.73358 -13.78038,7.73003 -15.34529,8.881 l -2.84529,2.09269 8.84528,0.6306 c 4.8649,0.34683 16.3739,0.97925 25.5755,1.40538 l 16.7302,0.77477 5.033,-4.70779 c 3.0953,-2.89534 8.3966,-6.25663 13.7698,-8.7309 20.466,-9.42418 23.4581,-11.09194 31.3946,-17.49949 4.5882,-3.70426 9.9172,-7.62941 11.8422,-8.72257 1.925,-1.09315 4.4,-2.78421 5.5,-3.7579 1.1,-0.97369 7.4,-4.31119 14,-7.41666 26.283,-12.36686 40.6635,-19.738 41.1915,-21.1139 0.305,-0.79491 -1.0979,-4.01395 -3.1177,-7.15342 -11.5825,-18.00368 -17.5317,-36.30026 -14.9435,-45.95812 1.1434,-4.26676 2.3697,-2.23357 2.3697,3.92905 0,9.75042 3.3416,18.50727 10.3219,27.04934 3.2682,3.99939 7.2757,9.63411 8.9056,12.52161 1.6299,2.8875 3.3089,5.25 3.7311,5.25 1.2057,0 9.5284,-9.22706 12.3398,-13.68061 1.398,-2.21466 6.0278,-10.28002 10.2884,-17.92302 11.6252,-20.85448 19.2178,-31.7414 31.5418,-45.22696 2.6793,-2.93182 4.8714,-4.67706 4.8714,-3.8783 0,1.72487 -7.2617,13.00822 -15.6606,24.33363 -5.5988,7.54971 -17.2019,28.37526 -15.8094,28.37526 0.5017,0 15.3652,-10.01676 23.5518,-15.87197 1.3763,-0.98437 1.9182,-1.03665 1.9182,-0.18503 0,1.81635 -10.0075,10.95459 -20.9952,19.17142 -6.275,4.69264 -10.3253,8.47945 -11.108,10.38558 -2.5741,6.26884 -9.4345,17.16058 -13.6425,21.65923 -3.2429,3.46691 -7.3499,6.12016 -15.844,10.23579 -17.0084,8.24098 -38.9335,20.22374 -47.1616,25.77523 -3.9882,2.69085 -10.9632,8.18013 -15.5,12.1984 -4.5368,4.01827 -11.8487,10.15072 -16.2487,13.62768 l -8,6.32174 18,-0.71571 c 9.9,-0.39364 29.7,-1.10417 44,-1.57897 42.136,-1.39902 54.9527,-4.83205 74,-19.82128 9.5891,-7.54613 21.6722,-13.02553 43.4747,-19.71486 10.1611,-3.11757 19.672,-6.28742 21.1353,-7.04412 1.4633,-0.7567 3.8132,-3.30346 5.222,-5.65947 1.4088,-2.35601 5.8479,-7.9508 9.8647,-12.43287 4.0168,-4.48206 12.0283,-14.47165 17.8033,-22.19908 5.775,-7.72744 10.8375,-14.07279 11.25,-14.10079 1.6712,-0.11346 0.5589,2.99096 -2.718,7.58607 -1.9075,2.67465 -4.72,6.83124 -6.25,9.23686 -1.5301,2.40561 -5.1252,7.91811 -7.9892,12.25 -2.8639,4.33188 -4.8889,7.8602 -4.5,7.84071 0.389,-0.0195 1.8322,-0.67854 3.2072,-1.46456 1.375,-0.78602 3.3659,-1.44508 4.4243,-1.46456 1.766,-0.0325 1.7248,0.17808 -0.5,2.55938 -1.3334,1.42715 -5.3493,4.34513 -8.9243,6.48439 -3.575,2.13926 -7.5709,5.47219 -8.8798,7.40651 -4.4446,6.56831 -15.7147,16.28801 -21.1067,18.20307 -3.3383,1.18566 -4.9695,2.30096 -4.7829,3.27011 0.5068,2.63161 6.5641,5.77757 13.4914,7.00706 3.7279,0.66163 12.8187,3.24636 20.2018,5.74383 13.1535,4.44946 13.6248,4.53119 23.4128,4.05986 8.5285,-0.41067 9.7206,-0.28463 8.1525,0.86195 -4.8582,3.55242 -20.3509,3.01138 -38.9891,-1.3616 -7.15,-1.67756 -16.375,-3.56357 -20.5,-4.19112 -4.5165,-0.68712 -10.543,-2.56494 -15.1497,-4.72059 -7.1347,-3.33854 -7.909,-3.49782 -11.5,-2.3654 -8.9079,2.80906 -28.8796,17.00615 -38.8832,27.64056 -8.5025,9.03856 -14.9572,10.30427 -57.9671,11.3669 -50.1463,1.23895 -56.2786,1.76332 -76.0598,6.50391 -14.8461,3.55787 -30.5037,6.2098 -55.9264,9.47227 -12.4773,1.6012 -29.62746,4.36392 -38.11151,6.13939 l -15.42554,3.22811 0.76163,5.07799 c 1.39614,9.30854 0.79322,29.5847 -1.06436,35.79378 -1.49566,4.99935 -1.57416,7.19289 -0.62624,17.5 1.74268,18.94876 3.9993,33.3797 6.14303,39.2842 4.08315,11.24626 4.88631,14.76865 6.37956,27.97855 1.84541,16.32523 4.58266,27.04446 8.07539,31.62366 1.42898,1.87349 5.63462,5.42499 9.34588,7.89223 6.36834,4.23367 9.93236,5.60572 32.48866,12.50722 7.9139,2.4214 9.5197,3.4539 9.5197,6.1208 0,1.5369 0.7574,1.8775 4.1743,1.8775 h 4.1743 l -2.0493,-2.25 c -2.5206,-2.7673 -4.6377,-6.7449 -3.954,-7.4286 0.5696,-0.5696 6.6547,7.5034 6.6547,8.8287 0,0.4675 0.675,0.8499 1.5,0.8499 0.9002,0 1.5,-0.9232 1.5,-2.3088 0,-1.2699 0.7073,-3.1824 1.5718,-4.25 1.4974,-1.8493 1.5476,-1.7963 1.0625,1.1213 -0.2801,1.6844 -0.6499,3.7045 -0.8218,4.489 -0.2428,1.1082 1.5839,1.5793 8.1875,2.1115 l 8.5,0.685 2.7231,-3.1739 c 3.0023,-3.4995 3.6906,-2.9982 1.1686,0.8509 -1.4709,2.2449 -1.472,2.507 -0.013,3.067 0.8777,0.3369 3.0186,0.1164 4.7575,-0.4898 3.9213,-1.3669 10.5129,-1.4617 7.3633,-0.1058 -1.1,0.4735 -3.3436,1.1533 -4.9858,1.5106 -5.3037,1.1538 -0.7502,2.2804 13.9674,3.4556 7.6595,0.6116 14.0859,1.2716 14.281,1.4667 1.0432,1.0431 -152.73045,4.3049 -181.26258,3.8449 -39.15016,-0.6313 -51.92054,-0.4173 -65.87929,1.1041 -17.15505,1.8698 -26.8556,1.8783 -38.12071,0.033 z m 102.875,-13.5367 c 0.93376,-4.6688 0.76048,-8.0767 -0.375,-7.375 -0.55,0.34 -1,2.1665 -1,4.0591 0,3.8115 -0.17921,3.9361 -3.31574,2.3052 -2.06879,-1.0757 -2.0561,-0.9964 0.24005,1.5 3.10922,3.3804 3.68952,3.3166 4.45069,-0.4893 z m -58.83306,-0.7905 c 3.97738,-1.7594 4.79851,-2.7963 9.31065,-11.757 2.72171,-5.4051 6.80631,-12.97746 9.07688,-16.82746 3.71916,-6.30625 5.66302,-11.43086 7.52333,-19.83379 1.90459,-8.60297 -6.03504,5.83767 -9.36626,17.0354 -1.53857,5.17184 -3.67714,9.22739 -7.58759,14.389 -2.99484,3.95306 -5.21146,7.56555 -4.92582,8.02775 1.1356,1.8374 -1.76528,4.6799 -8.0115,7.8504 -3.6089,1.8317 -6.56163,3.5444 -6.56163,3.8058 0,0.841 6.04882,-0.7026 10.54194,-2.6901 z m 132.90806,2.0642 c -0.5225,-0.4682 -3.875,-1.6433 -7.45,-2.6112 -8.75032,-2.3693 -9.47479,-2.8411 -11.93309,-7.7705 -1.17036,-2.34683 -4.40661,-6.74196 -7.19167,-9.76696 l -5.06375,-5.5 2.54259,4.5 c 1.39843,2.475 2.85572,6.45852 3.23842,8.85226 0.57812,3.6161 1.18405,4.5225 3.58205,5.3584 1.58742,0.5534 3.54933,2.2885 4.3598,3.8558 1.3996,2.7065 1.86248,2.8667 9.21961,3.1903 4.26032,0.1874 8.17354,0.4313 8.69604,0.542 0.6,0.1271 0.6,-0.1124 0,-0.6501 z m -161.97778,-2.0237 c -2.48608,-2.3636 -10.73903,-5.125 -15.31703,-5.125 -4.78804,0 -3.50993,0.8614 3.81305,2.5697 3.3944,0.7919 7.37767,2.0946 8.8517,2.895 3.75273,2.0377 4.98668,1.8797 2.65228,-0.3397 z m 110.22957,-11.49161 c -0.26938,-1.72334 -1.20455,-5.02926 -2.07816,-7.34648 -0.97607,-2.58898 -1.34278,-5.44113 -0.95128,-7.39864 0.60445,-3.02221 0.71214,-3.08818 2.10079,-1.28687 1.30363,1.69102 1.37548,1.02384 0.65704,-6.10136 -0.44366,-4.4 -0.89869,-13.175 -1.01119,-19.5 -0.45501,-25.58282 -1.15755,-34.42823 -3.21263,-40.44941 -1.87898,-5.50521 -1.91705,-6.23318 -0.5099,-9.75 0.83639,-2.09032 1.92184,-3.80059 2.41212,-3.80059 1.4796,0 0.99479,-7.01041 -1.08462,-15.68372 -1.71632,-7.15884 -1.88803,-10.41491 -1.3711,-26 0.38425,-11.58459 0.2138,-19.04049 -0.48731,-21.31628 -0.8764,-2.84477 -1.0728,-0.69186 -1.04911,11.5 0.016,8.25 -0.29286,17.83175 -0.68642,21.29278 -0.55548,4.88502 -0.20122,8.63647 1.58357,16.76912 l 2.29912,10.47634 -2.2654,2.4114 c -2.06788,2.20116 -2.21965,3.09315 -1.7408,10.23088 0.28853,4.30071 0.85285,9.12386 1.25403,10.7181 0.52033,2.06768 0.4012,2.69577 -0.41555,2.19099 -1.74578,-1.07896 -1.41491,2.6849 1.0157,11.554 2.03271,7.41715 2.07083,8.20706 0.64359,13.33482 -0.94412,3.39201 -1.14219,5.5756 -0.52444,5.78152 1.25882,0.4196 1.06109,10.71313 -0.2732,14.22258 -1.45732,3.83305 -1.25599,7.3417 0.98862,17.22874 3.14542,13.85489 4.3994,17.99809 4.81901,15.92209 0.20752,-1.0267 0.1569,-3.2767 -0.11248,-5.00001 z m -85.26485,-10.73538 c -0.60449,-0.97809 -6.52582,-3.89797 -7.90482,-3.89797 -1.47943,0 -0.27969,2.00511 1.21788,2.03544 0.9625,0.0195 2.875,0.67854 4.25,1.46456 3.065,1.75211 3.29729,1.79005 2.43694,0.39797 z m 9.06306,-18.89797 c -2.74909,-1.18132 -4.32797,-1.18132 -2.5,0 0.825,0.53316 2.175,0.94464 3,0.9144 0.98906,-0.0362 0.81874,-0.34772 -0.5,-0.9144 z m 23.46937,-46 c 0,-3.27015 -0.26493,-4.09005 -0.96937,-3 -0.53316,0.825 -0.96937,3.525 -0.96937,6 0,3.27015 0.26493,4.09005 0.96937,3 0.53316,-0.825 0.96937,-3.525 0.96937,-6 z m 14.47792,-14.49706 c 0.37091,-2.47339 0.38231,-4.96964 0.0253,-5.54722 -0.83945,-1.35826 -1.73688,-11.68743 -1.72576,-19.86304 0.006,-4.7709 -0.24538,-5.95327 -0.98619,-4.62953 -0.54719,0.97778 -1.01076,4.31107 -1.03016,7.40732 -0.0561,8.95201 1.48468,27.12953 2.29955,27.12953 0.40856,0 1.04631,-2.02368 1.41722,-4.49706 z m 49.93109,-42.75294 c 0.36285,-1.5125 0.25363,-2.75 -0.2427,-2.75 -1.10871,0 -2.24709,4.01072 -1.48731,5.24007 0.71249,1.15283 0.93179,0.83718 1.73001,-2.49007 z m -68.53337,-37.11494 c 2.51766,-2.29225 5.59177,-7.53161 4.85269,-8.27069 -0.24737,-0.24737 -1.4136,1.18381 -2.59161,3.1804 -1.39528,2.36482 -3.52014,4.17158 -6.09603,5.18341 -2.17479,0.85428 -3.70387,1.95823 -3.39796,2.45321 0.78493,1.27004 4.46374,-0.0251 7.23291,-2.54633 z M 524.2833,633.4434 c -0.82981,-1.1783 -9.33387,6.13488 -9.33387,8.02679 0,0.62773 2.1612,-0.83477 4.80267,-3.25 2.64146,-2.41523 4.68051,-4.56479 4.5312,-4.77679 z m -59.36714,-24.86454 c -0.044,-0.99128 -3.61537,-5.25 -4.4027,-5.25 -0.33847,0 0.0827,1.35 0.93597,3 1.40596,2.71884 3.54923,4.10987 3.46673,2.25 z m -14.71673,-9.23899 c 1.26748,-0.008 1.75,-0.82192 1.75,-2.95199 0,-1.61754 -0.40551,-3.19161 -0.90114,-3.49792 -0.49562,-0.30631 -4.3454,-1.21593 -8.55507,-2.02137 -4.5007,-0.86113 -10.38498,-2.91463 -14.28308,-4.98453 -3.64603,-1.93605 -6.74641,-3.40284 -6.88972,-3.25952 -0.14331,0.14331 2.60716,3.25803 6.11216,6.92159 7.7468,8.09723 12.65767,10.98449 17.51685,10.2987 1.925,-0.27168 4.2875,-0.49891 5.25,-0.50496 z m 81.25,-24.94107 c 8.99985,-2.19984 16.3784,-7.04164 28.37176,-18.61752 l 11.44604,-11.04759 -2.1159,-6.96602 c -3.03221,-9.98291 -6.62135,-14.70617 -19.33059,-25.43881 -6.18727,-5.225 -14.20197,-12.07968 -17.81045,-15.23262 -3.60847,-3.15294 -6.84958,-5.74044 -7.20245,-5.75 -0.35288,-0.01 -0.94411,1.18793 -1.31385,2.66109 -0.36974,1.47316 -2.2886,6.21447 -4.26414,10.53625 l -3.59188,7.85777 1.22083,25.21376 c 1.1549,23.85225 2.44183,37.85495 3.66027,39.82643 0.29912,0.48399 1.75582,0.27236 3.23711,-0.4703 1.48129,-0.74265 4.94325,-1.90025 7.69325,-2.57244 z m -20.76597,-7.11991 c -0.77738,-11.34165 -2.66836,-13.76694 -2.68997,-3.45003 -0.0188,8.96974 0.69011,12.78233 2.20284,11.84741 0.62778,-0.38799 0.81495,-3.61453 0.48713,-8.39738 z m 62.29287,2.79997 c 2.2178,-4.88589 2.493,-12.82542 0.598,-17.25 -1.1876,-2.7728 -1.3305,-2.20479 -1.8873,7.5 -0.3314,5.775 -0.906,11.2875 -1.277,12.25 -1.40061,3.63354 0.7198,1.5679 2.5663,-2.5 z M 466.93584,539.30223 c -2.66225,-5.21845 -3.27727,-4.78704 -1.49419,1.04811 0.75269,2.46319 1.72069,5.82852 2.15112,7.47852 l 0.7826,3 0.3432,-3.67972 c 0.2195,-2.35332 -0.42311,-5.18185 -1.78273,-7.84691 z m -90.98641,4.4547 c 0,-0.88638 -4.95581,-9.29648 -9.31755,-15.81205 -2.16642,-3.23619 -7.84657,-9.98619 -12.62256,-15 -10.40904,-10.92736 -12.59188,-14.49546 -19.55062,-31.95777 -9.54852,-23.96114 -11.30508,-26.34288 -23.49364,-31.85536 -4.6836,-2.11824 -9.71006,-4.51544 -11.16992,-5.32711 -1.626,-0.90405 -5.34125,-1.47578 -9.59004,-1.47578 -15.96981,0 -39.96394,9.80891 -36.7429,15.02067 0.3329,0.53863 1.16501,0.97933 1.84914,0.97933 0.68414,0 4.97624,1.80493 9.53801,4.01095 22.08174,10.67848 33.35921,21.90241 60.27519,59.98905 7.12066,10.07588 10.45198,13.93389 13.13411,15.21065 1.97648,0.94086 8.90297,2.40556 15.39219,3.2549 6.48923,0.84934 13.82359,1.94274 16.29859,2.42978 6.04192,1.18897 6,1.18524 6,0.53274 z m 84.67056,-26.03549 c -0.79031,-12.03129 -2.86618,-20.43008 -7.86141,-31.80656 -5.40275,-12.30458 -7.14402,-20.35334 -6.32169,-29.22115 0.85175,-9.18507 -0.52702,-13.73853 -6.21824,-20.53619 -5.63382,-6.7291 -8.21926,-12.19757 -8.24726,-17.44382 -0.0286,-5.36218 -2.51946,-8.43932 -9.51092,-11.74962 -7.89529,-3.73824 -24.98813,-8.63524 -30.14108,-8.63524 h -4.36996 v 8.14353 c 0,6.03941 1.19275,13.46781 4.61629,28.75 5.74975,25.66607 7.2867,29.8447 13.2742,36.08954 2.59985,2.71159 5.77531,7.31218 7.05658,10.22355 8.87278,20.16114 10.33583,21.75376 27.23168,29.64337 10.51567,4.91035 18.177,10.54481 19.34594,14.2278 1.33612,4.20975 1.74645,1.45775 1.14587,-7.68521 z m 31.77546,-35.23007 c 0.88372,-2.66062 2.44727,-9.83698 3.47456,-15.94747 1.39408,-8.29216 2.80761,-12.98614 5.5732,-18.50722 l 3.7054,-7.39723 -2.11884,-10.4053 c -3.56037,-17.48447 -6.5295,-25.59686 -14.28823,-39.03904 -4.01066,-6.94856 -8.09526,-13.69856 -9.07688,-15 l -1.78477,-2.36625 0.4989,3.5 c 0.2744,1.925 0.80545,11.15 1.18011,20.5 0.57778,14.41891 0.42415,17.88334 -1.01183,22.81797 -1.62472,5.58322 -1.61197,6.1481 0.31589,14 1.1049,4.50012 2.50387,12.90703 3.10881,18.68203 0.60493,5.775 1.33693,11.625 1.62664,13 0.74259,3.52434 6.44558,21 6.85312,21 0.18544,0 1.06021,-2.17687 1.94392,-4.83749 z m -36.06119,-6.41251 c -1.18174,-6.79552 -3.48408,-13.75 -4.55206,-13.75 -1.57364,0 -0.4038,8.73468 1.78441,13.32342 2.16881,4.54802 3.5206,4.75638 2.76765,0.42658 z m 51.44804,-17.28253 c 1.67191,-3.66945 2.61155,-10.46747 1.44685,-10.46747 -0.97178,0 -4.27972,8.97752 -4.27972,11.61483 0,2.2346 1.58431,1.59292 2.83287,-1.14736 z m 56.18678,-62.035 c 11.27365,-4.75464 16.01955,-7.32464 20.33845,-11.0138 2.1219,-1.81254 6.1292,-4.11074 8.9051,-5.1071 3.9467,-1.41661 6.1105,-3.11968 9.9248,-7.81157 8.4693,-10.41774 10.2581,-15.1903 10.6522,-28.41971 0.1872,-6.28084 -0.1796,-14.9752 -0.815,-19.3208 -1.3126,-8.97635 -8.6779,-36.74681 -10.1459,-38.25418 -1.4437,-1.48244 -7.2878,5.77377 -11.2712,13.99469 -1.8656,3.85 -5.4999,13.075 -8.0764,20.5 -2.5764,7.425 -6.26,18 -8.1857,23.5 -4.8342,13.80697 -12.22286,28.75121 -18.07486,36.55811 -2.70376,3.60696 -5.27877,7.14522 -5.72226,7.8628 -0.77004,1.24595 -4.49596,14.71095 -4.53174,16.37713 -0.009,0.43892 2.08322,-0.64705 4.65033,-2.41326 2.56711,-1.76622 8.12559,-4.66976 12.35218,-6.45231 z m -31.68249,-3.68247 c -0.90509,-1.49128 -2.2133,-0.68647 -4.2556,2.61803 -3.22178,5.21295 -2.45941,6.40095 1.31462,2.04858 1.86789,-2.15414 3.19134,-4.25411 2.94098,-4.66661 z m -97.33716,-8.1791 c 0,-0.94471 -11.05657,-2.65151 -12.23561,-1.88881 -0.81766,0.52893 0.14887,1.03276 2.73561,1.426 5.21823,0.7933 9.5,1.00189 9.5,0.46281 z"
     id="path1430"
     sodipodi:nodetypes="csssscssccccsccssssssssssssssssssssssssssssssscssssssssssssssssssssssssssssssssssssssssssssssssssssssssssssssssssssssscssssscsssssssssssssssssscsssssssscsssssssscsssssssssssssscsscssssssssssssssssssssssssscsssscsssssssscsssssssssssssssssssssssssssssssssssssssssssssssssssscsssssssssssssssscssscssssssssssscssssssssssssssscsssssssscsssssssssssssscssssscssscsscssssssscssscsssssssssssscsscssssscssssscssssscsssssssscssssssssscsscsssssssssssscsscssssssssssscssssscscsssssssssssscsssssssssssssssssssssssssssscssscssssssssssssssssssssscsssssssssssssssssssscsssssssssssssssssssssssssssssssssssssssssssscsscsssssssssssssssssssssssssssscssssssssssssssssssssssssssssssssscsssssssssscssssssssscssssssssssccsssssssssssssssssssscssssssssssssssssssssssssssscssssssssssssssssssssssssssscsssssssssssssssssssssssssssssssssscssscsscsssssssssssssssscsssssssssssssssssssssssscsssssssssscssscsssssssssssssssssssssssssssscssssssssss" /><circle
     style="fill:#ff0000;fill-opacity:1;stroke:#000000;stroke-width:1.33333"
     id="path1484"
     cx="266.51636"
     cy="73.551529"
     r="56.355095" /><circle
     style="fill:#ff0000;fill-opacity:1;stroke:#000000;stroke-width:1.33333"
     id="path1484-1"
     cx="454.46167"
     cy="57.021759"
     r="56.355095" /><circle
     style="fill:#ff0000;fill-opacity:1;stroke:#000000;stroke-width:1.33333"
     id="path1484-5"
     cx="603.28595"
     cy="77.454742"
     r="56.355095" /><circle
     style="fill:#ff0000;fill-opacity:1;stroke:#000000;stroke-width:1.33333"
     id="path1484-54"
     cx="737.65277"
     cy="137.11989"
     r="56.355095" /><circle
     style="fill:#ff0000;fill-opacity:1;stroke:#000000;stroke-width:1.33333"
     id="path1484-7"
     cx="822.1524"
     cy="221.18294"
     r="56.355095" /><circle
     style="fill:#ff0000;fill-opacity:1;stroke:#000000;stroke-width:1.33333"
     id="path1484-6"
     cx="183.27258"
     cy="170.9958"
     r="56.355095" /><circle
     style="fill:#ff0000;fill-opacity:1;stroke:#000000;stroke-width:1.33333"
     id="path1484-56"
     cx="61.387177"
     cy="321.94608"
     r="56.355095" /><ellipse
     style="fill:#ff0000;fill-opacity:1;stroke:#000000;stroke-width:1.33333"
     id="path1484-9"
     cx="858.61249"
     cy="335.04745"
     rx="56.355"
     ry="56.355095" /><circle
     style="fill:#ff0000;fill-opacity:1;stroke:#000000;stroke-width:1.33333"
     id="path1484-3"
     cx="875.10883"
     cy="584.04694"
     r="56.355095" /><circle
     style="fill:#ff0000;fill-opacity:1;stroke:#000000;stroke-width:1.33333"
     id="path1484-74"
     cx="57.021759"
     cy="463.65512"
     r="56.355095" /></svg>
